:version 1.10
:name ASF
:units
  mass 1
  length 1
  angle deg
:documentation
  ASF file generated by Kaydara
:root
  axis xyz
  order  tx ty tz rx ry rz
  position 0 0 0
  orientation 0 0 0
:bonedata
  begin
    id 1
    name LeftUpLegDummy
    direction 1 -2.30186e-007 -8.31532e-007
    length 2.93387
    axis 0 0 0 xyz
  end
  begin
    id 2
    name LeftUpLeg
    direction -1.82929e-007 -1 -1.48925e-009
    length 17.3336
    axis -3.48766 0.00143442 -0.000521554 xyz
    dof rx ry rz
  end
  begin
    id 3
    name LeftLeg
    direction -1.82929e-007 -1 -5.23717e-011
    length 14.9995
    axis 3.68178 -0.00654042 -0.000282425 xyz
    dof rx ry rz
  end
  begin
    id 4
    name LeftFoot
    direction 8.31532e-007 -4.54534e-011 1
    length 6.74421
    axis 1.87234e-006 4.66016e-005 -5.96866e-006 xyz
    dof rx ry rz
  end
  begin
    id 5
    name LeftToes
    direction 0.00818058 -0.00485161 0.999955
    length 3.85048
    axis 1.06247e-005 4.65869e-005 -5.96999e-006 xyz
    dof rx ry rz
  end
  begin
    id 6
    name SpineDummy
    direction -5.8607e-008 0.943407 -0.331637
    length 5.93572
    axis 0 0 0 xyz
  end
  begin
    id 7
    name Spine
    direction -1.04988e-007 0.999988 0.00495137
    length 10.1015
    axis -0.001389 0.000121417 6.61666e-006 xyz
    dof rx ry rz
  end
  begin
    id 8
    name Spine1
    direction 0 0 0
    length 0
    axis -0.001389 0.00012144 6.56766e-006 xyz
    dof rx ry rz
  end
  begin
    id 9
    name RightShoulderDummy
    direction -0.98348 0.17941 -0.0240696
    length 3.59882
    axis -0.001389 0.00012144 6.56766e-006 xyz
  end
  begin
    id 10
    name RightShoulder
    direction -0.978693 0.204882 0.0135597
    length 2.70001
    axis 0.215806 0.000203631 -0.00679732 xyz
    dof rx ry rz
  end
  begin
    id 11
    name RightArm
    direction -1 3.85509e-006 8.31394e-007
    length 10.2459
    axis -23.2009 -0.134239 -0.964098 xyz
    dof rx ry rz
  end
  begin
    id 12
    name RightForeArm
    direction -1 3.85569e-006 8.3129e-007
    length 8.16799
    axis -9.92322 0.0658061 0.17887 xyz
    dof rx ry rz
  end
  begin
    id 13
    name RightHand
    direction -0.992843 -0.0414604 0.112003
    length 5.28593
    axis -0.00960638 0.00330669 -0.185225 xyz
    dof rx ry rz
  end
  begin
    id 14
    name LeftShoulder1Dummy
    direction 0.983523 0.179172 -0.0240748
    length 3.59866
    axis -0.001389 0.00012144 6.56766e-006 xyz
  end
  begin
    id 15
    name LeftShoulder1
    direction 0.978627 0.205195 0.0135605
    length 2.70019
    axis -0.001389 0.00012144 6.57583e-006 xyz
    dof rx ry rz
  end
  begin
    id 16
    name LeftArm
    direction 1 3.51895e-006 -8.60188e-007
    length 10.2459
    axis -23.1894 0.134785 0.967513 xyz
    dof rx ry rz
  end
  begin
    id 17
    name LeftForeArm
    direction 1 3.51921e-006 -7.32029e-007
    length 8.16799
    axis -9.91835 -0.0656957 -0.177789 xyz
    dof rx ry rz
  end
  begin
    id 18
    name LeftHand
    direction 0.992938 -0.0411636 0.11126
    length 5.32135
    axis -0.00960237 -0.00340661 0.185177 xyz
    dof rx ry rz
  end
  begin
    id 19
    name HEadDummy
    direction 1.01974e-006 0.999861 -0.016675
    length 2.99946
    axis -0.001389 0.00012144 6.56766e-006 xyz
  end
  begin
    id 20
    name HEad
    direction -0.0222689 0.980941 0.193023
    length 5.12695
    axis -0.001389 0.00012144 6.56766e-006 xyz
    dof rx ry rz
  end
  begin
    id 21
    name RightUpLegDummy
    direction -1 2.30186e-007 8.31532e-007
    length 2.93387
    axis 0 0 0 xyz
  end
  begin
    id 22
    name RightUpLeg
    direction -1.82966e-007 -1 1.56832e-007
    length 17.3336
    axis -3.4909 -0.000906625 0.00028951 xyz
    dof rx ry rz
  end
  begin
    id 23
    name RightLeg
    direction -1.82786e-007 -1 -1.80317e-007
    length 14.9995
    axis 3.68513 0.0193739 -0.131021 xyz
    dof rx ry rz
  end
  begin
    id 24
    name RightFoot
    direction 8.31721e-007 -4.63324e-011 1
    length 6.74421
    axis 4.81691e-005 -0.120479 -0.188785 xyz
    dof rx ry rz
  end
  begin
    id 25
    name RightToes
    direction 0.00124746 -0.014064 0.9999
    length 3.85082
    axis 0.000481921 0.542163 -0.142575 xyz
    dof rx ry rz
  end
:hierarchy
  begin
    root LeftUpLegDummy SpineDummy RightUpLegDummy
    LeftUpLegDummy LeftUpLeg
    LeftUpLeg LeftLeg
    LeftLeg LeftFoot
    LeftFoot LeftToes
    SpineDummy Spine
    Spine Spine1
    Spine1 RightShoulderDummy LeftShoulder1Dummy HEadDummy
    RightShoulderDummy RightShoulder
    RightShoulder RightArm
    RightArm RightForeArm
    RightForeArm RightHand
    LeftShoulder1Dummy LeftShoulder1
    LeftShoulder1 LeftArm
    LeftArm LeftForeArm
    LeftForeArm LeftHand
    HEadDummy HEad
    RightUpLegDummy RightUpLeg
    RightUpLeg RightLeg
    RightLeg RightFoot
    RightFoot RightToes
  end

:SAMPLES-PER-SECOND 30
:FULLY-SPECIFIED
:DEGREES
160
root  0.974288 34.0685 16.7628 5.08943 22.9474 1.09282
LeftUpLeg  -8.43208 13.8227 -0.4859
LeftLeg  12.7348 11.5026 1.81841
LeftFoot  -1.43852 -0.00363351 -0.289436
LeftToes  -13.9354 1.92152e-006 4.03786e-008
Spine  2.01895 1.48426 -2.0467
Spine1  3.6703 3.00349 -3.86383
RightShoulder  0.0456554 4.73875 6.54142
RightArm  -25.0848 -9.36848 65.6144
RightForeArm  17.0968 62.7803 20.1369
RightHand  3.87878 -17.1332 -24.9584
LeftShoulder1  0.0516865 0.474863 -9.51812
LeftArm  -23.4174 13.4433 -63.9529
LeftForeArm  26.2311 -16.1408 -2.91994
LeftHand  0.0953795 3.00539 3.2989
HEad  -5.71191 -32.7097 7.01051
RightUpLeg  -14.8597 -10.4536 -6.63079
RightLeg  9.93187 6.53914 0.716428
RightFoot  8.92343 -0.0521127 1.07335
RightToes  -33.2889 -0.166522 -0.274163
161
root  1.05396 34.066 16.6083 5.01741 23.1915 1.23826
LeftUpLeg  -8.56936 13.7751 -0.850227
LeftLeg  12.845 11.2398 1.79938
LeftFoot  -1.55117 -0.00356334 -0.304307
LeftToes  -13.4253 1.92152e-006 4.03786e-008
Spine  1.96134 1.07739 -2.058
Spine1  3.58691 2.17768 -3.8848
RightShoulder  0.0365793 3.31357 6.84222
RightArm  -31.1428 -9.86081 66.4304
RightForeArm  30.7409 71.0631 31.1566
RightHand  3.21263 -15.6524 -22.6838
LeftShoulder1  0.0510043 0.543885 -9.39549
LeftArm  -23.8732 14.1146 -64.0775
LeftForeArm  26.0871 -16.6876 -3.02463
LeftHand  0.0943976 2.8662 3.47158
HEad  -5.20432 -32.7091 6.76442
RightUpLeg  -15.0145 -10.7963 -6.98304
RightLeg  10.2211 6.65478 0.76295
RightFoot  9.09873 -0.0553186 1.10958
RightToes  -33.502 -0.169004 -0.276176
162
root  1.13786 34.0656 16.4726 4.99396 23.4978 1.40854
LeftUpLeg  -8.7128 13.9098 -1.23003
LeftLeg  12.9288 10.7623 1.73987
LeftFoot  -1.63313 -0.00306219 -0.305456
LeftToes  -13.0347 1.92152e-006 4.03786e-008
Spine  1.91095 0.646441 -2.06497
Spine1  3.50777 1.32357 -3.92407
RightShoulder  0.0324899 3.16546 6.44923
RightArm  -32.9599 -9.57635 64.8419
RightForeArm  56.1931 78.0171 56.9813
RightHand  3.26003 -15.5669 -23.1413
LeftShoulder1  0.0507961 0.549735 -9.11335
LeftArm  -23.5334 14.8379 -64.1744
LeftForeArm  26.1413 -17.037 -3.09181
LeftHand  0.0938992 2.70854 3.59116
HEad  -4.41917 -32.5914 6.53883
RightUpLeg  -15.111 -11.1695 -7.34652
RightLeg  10.4005 6.7053 0.789929
RightFoot  9.28533 -0.0580206 1.13914
RightToes  -33.7305 -0.171212 -0.277911
163
root  1.20873 34.0573 16.351 5.00521 23.9951 1.54537
LeftUpLeg  -8.96279 13.9775 -1.5494
LeftLeg  13.158 10.1434 1.68227
LeftFoot  -1.77043 -0.00123287 -0.311765
LeftToes  -12.7311 1.92152e-006 4.03786e-008
Spine  1.94193 0.425752 -2.03626
Spine1  3.56753 0.889922 -3.88418
RightShoulder  0.0321289 3.7896 5.62816
RightArm  -33.6972 -9.7858 61.9728
RightForeArm  101.497 79.5874 103.818
RightHand  3.36706 -16.1518 -23.0267
LeftShoulder1  0.0521254 0.338602 -8.92627
LeftArm  -22.5309 14.9152 -64.1963
LeftForeArm  26.4889 -17.0232 -3.08902
LeftHand  0.0917141 2.63817 3.42462
HEad  -4.17464 -32.9765 6.51762
RightUpLeg  -15.1674 -11.3193 -7.68892
RightLeg  10.5262 6.3228 0.759109
RightFoot  9.47237 -0.0560944 1.09787
RightToes  -34.0416 -0.172719 -0.279451
164
root  1.26766 34.0588 16.2496 5.05054 24.7043 1.55579
LeftUpLeg  -9.17976 13.8723 -1.74301
LeftLeg  13.1371 9.51207 1.57498
LeftFoot  -1.81986 0.000154643 -0.300663
LeftToes  -12.092 1.92152e-006 4.03786e-008
Spine  2.06686 0.396808 -2.03367
Spine1  3.82173 0.826656 -3.87319
RightShoulder  0.0306821 3.47051 4.83645
RightArm  -34.1522 -10.4205 60.0174
RightForeArm  134.501 76.1596 133.426
RightHand  3.01351 -15.6512 -21.2909
LeftShoulder1  0.056649 0.0268075 -8.73759
LeftArm  -21.6743 14.2517 -64.117
LeftForeArm  27.0585 -16.7977 -3.04542
LeftHand  0.0858179 2.74403 2.91743
HEad  -4.79835 -33.9457 7.10037
RightUpLeg  -15.1421 -11.452 -7.89965
RightLeg  10.477 5.70741 0.680588
RightFoot  9.71904 -0.051483 1.01574
RightToes  -34.2436 -0.173439 -0.280882
165
root  1.31054 34.0723 16.178 5.20148 25.5293 1.5767
LeftUpLeg  -9.36835 13.6288 -1.91864
LeftLeg  12.886 8.95131 1.4428
LeftFoot  -1.61696 -0.000600137 -0.25066
LeftToes  -11.9215 1.92152e-006 4.03786e-008
Spine  2.15131 0.388326 -2.06237
Spine1  3.99935 0.79988 -3.91739
RightShoulder  0.0287637 2.76156 4.45381
RightArm  -33.8375 -12.0851 59.3323
RightForeArm  148.016 72.7805 144.659
RightHand  2.8498 -15.3912 -20.4822
LeftShoulder1  0.0593353 0.012915 -8.76451
LeftArm  -21.6234 13.4987 -63.8915
LeftForeArm  27.6571 -16.6687 -3.02041
LeftHand  0.0839182 2.82374 2.70638
HEad  -5.61367 -34.7678 7.59434
RightUpLeg  -14.9661 -11.19 -8.11927
RightLeg  10.0549 4.58707 0.513309
RightFoot  10.1431 -0.0415883 0.852282
RightToes  -34.5459 -0.17366 -0.282287
166
root  1.31687 34.0872 16.1446 5.46075 26.4642 1.60985
LeftUpLeg  -9.63516 13.5418 -2.03456
LeftLeg  12.6342 8.14112 1.27653
LeftFoot  -1.33734 -0.00218363 -0.187106
LeftToes  -12.0313 1.92152e-006 4.03786e-008
Spine  2.13394 0.331073 -2.08825
Spine1  3.97883 0.670992 -3.9513
RightShoulder  0.0272354 2.63216 4.23946
RightArm  -32.9721 -15.1755 60.5011
RightForeArm  145.309 72.7198 144.815
RightHand  3.17287 -15.7112 -22.3218
LeftShoulder1  0.0614997 0.146174 -8.80279
LeftArm  -22.6553 13.1529 -63.8197
LeftForeArm  28.0941 -16.6654 -3.01959
LeftHand  0.0913298 2.70663 3.28
HEad  -6.11798 -35.0517 7.78213
RightUpLeg  -14.7427 -10.9819 -8.26983
RightLeg  9.45618 3.42323 0.347399
RightFoot  10.537 -0.0300715 0.664128
RightToes  -34.9005 -0.173514 -0.284075
167
root  1.28546 34.0901 16.1489 5.74621 27.1611 1.64922
LeftUpLeg  -9.90008 13.5526 -2.07549
LeftLeg  12.4449 7.45629 1.14455
LeftFoot  -1.14082 -0.00143618 -0.144263
LeftToes  -12.1843 1.92152e-006 4.03786e-008
Spine  2.1412 0.368708 -2.08084
Spine1  4.0023 0.726563 -3.90247
RightShoulder  0.0272476 3.38736 4.38552
RightArm  -32.7318 -18.2856 63.0679
RightForeArm  129.228 76.6261 131.215
RightHand  3.56346 -16.2888 -24.1472
LeftShoulder1  0.0629384 0.205132 -8.97438
LeftArm  -23.6892 12.9225 -63.7705
LeftForeArm  27.7701 -16.758 -3.03751
LeftHand  0.101357 2.62738 4.037
HEad  -6.9701 -35.3022 8.31668
RightUpLeg  -14.6622 -10.964 -8.30406
RightLeg  9.05873 2.71896 0.257218
RightFoot  10.7195 -0.0227523 0.541444
RightToes  -35.3786 -0.173132 -0.286041
168
root  1.23317 34.0779 16.1741 5.92105 27.5496 1.62897
LeftUpLeg  -10.123 13.1355 -2.00766
LeftLeg  12.4623 7.5473 1.1608
LeftFoot  -1.15124 0.000161986 -0.146033
LeftToes  -12.1125 1.92152e-006 4.03786e-008
Spine  2.11604 0.508661 -2.05574
Spine1  3.93815 0.991376 -3.81677
RightShoulder  0.031072 3.9642 5.0393
RightArm  -32.3996 -18.2176 65.7927
RightForeArm  68.5352 79.5729 75.3979
RightHand  3.67629 -17.4574 -23.2345
LeftShoulder1  0.0634476 0.177569 -9.41618
LeftArm  -23.8619 12.8556 -63.407
LeftForeArm  26.9967 -16.8335 -3.05233
LeftHand  0.105756 2.60606 4.36124
HEad  -7.92228 -35.6018 8.67026
RightUpLeg  -14.7403 -11.2705 -8.19835
RightLeg  9.04324 2.69242 0.253988
RightFoot  10.6337 -0.0230028 0.536417
RightToes  -35.4752 -0.172646 -0.287344
169
root  1.17906 34.0627 16.2271 5.93973 27.6718 1.53698
LeftUpLeg  -10.2252 12.8949 -1.81021
LeftLeg  12.6257 7.71008 1.20814
LeftFoot  -1.17869 0.00113311 -0.1508
LeftToes  -12.6126 1.92152e-006 4.03786e-008
Spine  2.04151 0.615358 -2.03423
Spine1  3.75208 1.22018 -3.77734
RightShoulder  0.0377543 3.6433 6.25233
RightArm  -29.3101 -12.8723 66.8535
RightForeArm  24.3134 69.0523 27.6011
RightHand  3.76568 -16.8127 -24.7033
LeftShoulder1  0.0628233 0.0395207 -9.86466
LeftArm  -23.6922 13.2496 -62.8719
LeftForeArm  26.5469 -16.8318 -3.05217
LeftHand  0.10277 2.65449 4.19607
HEad  -8.04691 -35.5741 8.59237
RightUpLeg  -14.872 -11.9424 -7.9481
RightLeg  9.33196 3.3275 0.330451
RightFoot  10.3283 -0.030738 0.647565
RightToes  -35.3137 -0.172188 -0.287148
170
root  1.13952 34.0567 16.3021 5.86445 27.1667 1.41219
LeftUpLeg  -10.01 13.4341 -1.57192
LeftLeg  12.4687 7.70876 1.18638
LeftFoot  -1.21617 0.00142106 -0.152568
LeftToes  -12.7513 1.92152e-006 4.03786e-008
Spine  1.86797 0.688977 -1.99299
Spine1  3.37528 1.41512 -3.74867
RightShoulder  0.0427805 3.3732 6.51881
RightArm  -25.6073 -4.77293 67.2675
RightForeArm  21.9437 56.1686 15.3074
RightHand  4.43609 -15.907 -30.6072
LeftShoulder1  0.0590704 0.15635 -9.75348
LeftArm  -23.8824 14.266 -62.9293
LeftForeArm  26.8534 -16.6429 -3.01578
LeftHand  0.100589 2.5992 4.05095
HEad  -6.92108 -34.7674 7.48492
RightUpLeg  -15.0418 -12.2355 -7.64891
RightLeg  9.64294 4.17711 0.437273
RightFoot  10.0167 -0.040536 0.790563
RightToes  -34.7336 -0.171888 -0.283482
171
root  1.10738 34.0781 16.3765 5.65743 25.9573 1.29453
LeftUpLeg  -9.4364 14.0003 -1.32341
LeftLeg  11.9919 8.36033 1.21526
LeftFoot  -0.989098 -6.15996e-005 -0.129312
LeftToes  -13.1254 1.92152e-006 4.03786e-008
Spine  1.67706 0.7706 -1.9447
Spine1  2.97936 1.65024 -3.74466
RightShoulder  0.0443452 2.94295 6.45102
RightArm  -21.6504 2.91892 66.2826
RightForeArm  20.0068 51.2151 12.7077
RightHand  4.37177 -16.8023 -28.6013
LeftShoulder1  0.0509027 0.274918 -9.52191
LeftArm  -24.353 15.9911 -63.0912
LeftForeArm  27.2033 -16.6988 -3.02637
LeftHand  0.0983544 2.60674 3.94038
HEad  -5.68706 -33.2991 6.1013
RightUpLeg  -15.4736 -12.8946 -7.24811
RightLeg  10.4259 6.05418 0.716294
RightFoot  9.67539 -0.0608527 1.09646
RightToes  -33.9272 -0.171878 -0.277873
172
root  1.07016 34.1058 16.4477 5.26719 24.6728 1.20175
LeftUpLeg  -8.74857 13.9347 -1.05239
LeftLeg  11.7311 9.71053 1.36508
LeftFoot  -0.790392 -0.00079377 -0.115088
LeftToes  -13.2026 1.92152e-006 4.03786e-008
Spine  1.61278 0.895176 -1.90565
Spine1  2.82027 1.99747 -3.79065
RightShoulder  0.049864 2.8663 5.88166
RightArm  -18.5126 7.96362 64.5301
RightForeArm  21.5221 55.9683 15.1886
RightHand  4.22165 -17.4974 -26.5583
LeftShoulder1  0.0434063 0.341875 -9.31193
LeftArm  -24.3249 17.7104 -63.1708
LeftForeArm  27.275 -16.8567 -3.05668
LeftHand  0.0920919 2.5561 3.89102
HEad  -4.50453 -31.4905 4.99221
RightUpLeg  -15.916 -13.7512 -6.88094
RightLeg  11.6328 8.2029 1.14374
RightFoot  9.22537 -0.0824956 1.41643
RightToes  -33.1758 -0.17222 -0.273422
